<?xml version="1.0" standalone="no"?>
<!DOCTYPE svg PUBLIC "-//W3C//DTD SVG 20010904//EN"
 "http://www.w3.org/TR/2001/REC-SVG-20010904/DTD/svg10.dtd">
<svg version="1.0" xmlns="http://www.w3.org/2000/svg"
 width="300.000000pt" height="300.000000pt" viewBox="0 0 300.000000 300.000000"
 preserveAspectRatio="xMidYMid meet">
<metadata>
Created by potrace 1.11, written by Peter Selinger 2001-2013
</metadata>
<g transform="translate(0.000000,300.000000) scale(0.100000,-0.100000)"
fill="#000000" stroke="none">
<path d="M1260 2964 c-46 -8 -116 -24 -155 -35 -65 -20 -76 -27 -155 -108 -83
-84 -123 -143 -220 -324 -118 -219 -159 -624 -90 -892 23 -89 85 -203 125
-229 35 -23 40 -16 24 31 -16 50 -14 155 5 218 9 28 16 65 16 82 0 41 29 115
41 107 16 -10 39 17 39 45 l0 26 103 3 c56 1 118 6 137 10 33 7 34 9 35 57 0
46 -2 51 -43 82 -24 18 -53 33 -65 33 -21 -1 -21 -2 -4 -14 15 -12 9 -13 -46
-13 -35 0 -74 -4 -88 -7 -22 -6 -22 -6 -7 7 10 8 15 17 12 20 -9 8 -61 -19
-67 -35 -3 -7 -6 18 -6 55 -1 77 16 128 51 151 21 14 29 14 73 1 26 -8 56 -21
64 -29 40 -36 135 -56 116 -25 -4 5 -8 21 -10 34 -4 41 -45 74 -106 87 -47 10
-55 14 -51 30 5 21 58 78 73 78 5 0 8 5 7 11 -3 13 121 93 130 85 3 -4 17 2
31 11 59 39 246 134 289 146 72 20 195 22 211 3 10 -12 17 -13 31 -4 23 14 75
-15 66 -38 -7 -17 20 -19 27 -1 4 9 8 9 14 0 5 -6 17 -11 28 -10 15 2 21 -5
23 -25 2 -19 10 -28 25 -30 17 -2 22 -10 22 -30 -1 -15 4 -26 9 -25 6 1 10 -5
11 -13 0 -8 9 -16 20 -19 22 -4 35 -18 35 -40 0 -10 -3 -11 -14 -2 -12 10 -14
6 -11 -27 1 -22 6 -46 10 -53 5 -8 4 -14 -4 -17 -9 -3 -9 -7 0 -18 10 -12 9
-18 -3 -30 -14 -14 -17 -14 -32 1 -11 11 -25 15 -40 11 -16 -4 -29 0 -40 13
-20 22 -88 35 -113 22 -59 -29 -75 -33 -116 -28 -54 8 -116 -8 -139 -36 -19
-22 -21 -37 -12 -85 l6 -31 37 22 c20 13 73 36 119 51 65 23 93 27 130 22 112
-15 185 -61 249 -157 14 -21 30 -39 35 -39 5 0 11 -8 15 -17 4 -10 18 -36 33
-58 39 -59 52 -98 44 -131 -9 -35 -22 -45 -50 -38 -28 7 -41 -14 -19 -30 9 -7
19 -28 20 -47 2 -19 4 -36 5 -39 1 -3 1 -18 0 -33 -1 -15 4 -35 11 -43 8 -10
9 -18 3 -22 -11 -8 -11 -48 0 -74 5 -11 1 -20 -14 -28 -11 -6 -18 -15 -15 -20
3 -5 -6 -31 -20 -58 -14 -27 -27 -58 -29 -68 -3 -10 -7 -26 -10 -34 -4 -10 5
-27 24 -45 16 -16 30 -25 30 -19 0 5 5 2 10 -6 14 -22 12 -119 -5 -166 -27
-79 -112 -196 -137 -190 -10 2 -21 0 -24 -5 -9 -15 -22 -10 -29 11 -9 27 -20
25 -34 -7 -33 -74 -92 -142 -123 -143 -10 0 -18 -4 -18 -10 0 -5 -7 -10 -15
-10 -8 0 -15 5 -15 10 0 24 -20 7 -25 -23 -7 -33 -46 -87 -64 -87 -6 0 -14 -7
-19 -16 -5 -8 -22 -24 -38 -36 l-29 -20 30 6 c207 39 234 40 362 21 24 -4 57
-2 78 5 27 9 40 9 48 1 6 -6 20 -11 30 -11 14 0 18 -5 14 -19 -2 -10 0 -27 6
-37 6 -10 12 -50 13 -87 4 -84 11 -108 32 -106 44 4 62 -2 62 -20 0 -34 25
-44 62 -25 164 83 458 404 458 500 0 25 44 106 77 141 21 22 41 64 62 128 54
169 66 250 66 460 -1 188 -1 192 -39 335 -20 80 -52 184 -70 231 -65 175 -183
346 -344 501 -200 192 -429 314 -711 380 -117 27 -419 34 -541 12z m800 -604
c0 -5 -4 -10 -10 -10 -5 0 -10 5 -10 10 0 6 5 10 10 10 6 0 10 -4 10 -10z
m-1068 -382 c3 -18 8 -41 13 -50 12 -28 -41 -23 -70 6 -28 28 -24 53 9 66 36
15 44 11 48 -22z"/>
<path d="M1490 2190 c0 -5 5 -10 11 -10 5 0 7 5 4 10 -3 6 -8 10 -11 10 -2 0
-4 -4 -4 -10z"/>
<path d="M1915 2069 c11 -13 32 -35 48 -51 37 -37 34 -45 -6 -14 -60 46 -177
84 -177 58 0 -4 -27 -14 -60 -20 -33 -7 -76 -22 -95 -33 -46 -27 -46 -6 0 23
36 24 44 38 22 38 -15 0 -57 -28 -74 -50 -17 -21 -16 -40 2 -40 20 0 19 -10
-5 -40 -32 -40 -26 -50 30 -50 52 0 67 15 26 26 -32 8 -25 26 24 58 54 36 64
36 66 1 1 -16 5 -40 9 -52 6 -18 2 -22 -27 -29 l-33 -8 50 -12 c28 -7 67 -13
87 -13 36 -1 36 -2 28 -30 -8 -27 -6 -30 18 -33 15 -2 41 1 57 6 46 14 164
105 171 131 3 13 12 26 20 29 22 8 17 26 -11 36 -14 5 -25 14 -25 20 0 5 -9
10 -21 10 -11 0 -18 4 -15 9 3 4 -14 14 -37 21 -23 6 -53 16 -67 22 l-25 10
20 -23z"/>
<path d="M1373 1854 c-9 -23 11 -38 26 -20 13 16 7 36 -10 36 -5 0 -12 -7 -16
-16z"/>
<path d="M1370 1611 c0 -24 13 -33 35 -25 23 9 14 38 -13 42 -16 3 -22 -2 -22
-17z"/>
<path d="M1466 1611 c-37 -8 -47 -31 -13 -31 36 0 55 -28 54 -80 -2 -44 -2
-45 -44 -52 -88 -15 -183 -48 -183 -65 0 -34 263 4 320 46 38 28 40 85 3 123
-24 25 -96 71 -105 67 -2 -1 -16 -4 -32 -8z"/>
<path d="M980 1364 c-22 -49 -24 -72 -11 -92 13 -21 29 7 41 68 12 66 12 70 0
70 -6 0 -20 -21 -30 -46z"/>
<path d="M1681 1230 c-7 -17 -16 -19 -123 -24 -76 -4 -118 -13 -128 -25 -3 -4
-16 -12 -30 -18 l-25 -11 29 -7 c18 -5 36 -3 47 4 25 15 62 14 78 -1 11 -10
14 -10 18 0 7 18 60 15 67 -4 12 -31 6 -63 -16 -78 -16 -12 -25 -13 -35 -4
-10 8 -19 6 -36 -11 -13 -11 -34 -21 -46 -21 -17 0 -22 -4 -17 -16 4 -9 1 -23
-5 -30 -15 -19 -4 -18 27 2 46 31 36 6 -20 -49 l-56 -55 53 2 c64 3 85 -2 65
-16 -9 -7 -5 -8 12 -4 14 3 33 6 43 6 10 0 17 8 17 20 0 13 -7 20 -19 20 -11
0 -23 5 -27 11 -5 9 4 10 30 5 33 -6 40 -4 66 25 17 17 30 35 30 41 0 5 7 16
15 24 8 9 15 26 15 38 0 13 13 39 29 59 41 52 56 93 42 111 -17 21 -92 26
-100 6z m-1 -90 c0 -21 -15 -27 -25 -10 -7 12 2 30 16 30 5 0 9 -9 9 -20z"/>
<path d="M849 1188 c-19 -47 -133 -158 -204 -198 -73 -42 -52 -54 29 -17 30
14 63 23 73 21 11 -3 39 9 69 29 40 28 53 32 71 24 32 -14 37 -39 22 -112 -11
-59 -11 -65 9 -96 12 -19 30 -53 41 -75 10 -23 38 -57 61 -75 80 -64 115 -97
109 -103 -3 -4 -30 -13 -60 -20 -30 -8 -79 -26 -109 -40 -33 -16 -73 -26 -100
-26 -39 0 -119 -8 -360 -37 l-45 -5 65 -60 c132 -122 326 -234 515 -297 87
-28 301 -68 312 -58 2 3 -1 15 -7 28 -10 19 -10 21 3 16 12 -4 15 2 14 29 -1
20 -4 29 -9 21 -5 -8 -8 -7 -8 6 0 9 -13 30 -30 45 -27 25 -100 176 -100 207
0 7 -18 32 -41 55 -56 56 -50 76 21 72 30 -2 65 0 78 5 22 8 20 11 -33 57 -46
39 -66 68 -105 146 -26 54 -62 118 -79 143 -30 44 -104 190 -148 295 -13 28
-27 52 -32 52 -5 0 -15 -15 -22 -32z"/>
<path d="M1070 1185 c0 -8 50 -98 61 -109 5 -6 10 6 11 32 0 23 1 47 2 54 1 6
-6 12 -15 13 -9 2 -26 6 -38 10 -11 3 -21 4 -21 0z"/>
<path d="M1160 1040 c0 -5 6 -10 14 -10 7 0 19 -13 26 -30 9 -21 19 -30 36
-30 12 0 26 5 29 10 3 6 -3 10 -13 10 -11 0 -26 7 -33 17 -13 15 -12 15 8 5
25 -14 63 -16 63 -4 0 4 -12 15 -28 24 -20 12 -32 14 -46 6 -12 -7 -21 -7 -29
1 -14 14 -27 14 -27 1z"/>
<path d="M1323 1022 c-43 -6 -23 -22 27 -22 38 0 50 -4 50 -15 0 -8 7 -15 15
-15 18 0 20 16 3 23 -7 3 -2 6 10 6 14 1 22 6 20 13 -4 11 -76 17 -125 10z"/>
<path d="M1110 915 c-8 -9 -9 -15 -2 -15 6 0 14 5 17 10 4 6 11 8 16 5 5 -4 9
-1 9 4 0 16 -26 13 -40 -4z"/>
<path d="M2156 295 c-3 -9 0 -15 9 -15 16 0 20 16 6 24 -5 3 -11 -1 -15 -9z"/>
</g>
</svg>
